<?xml version="1.0" standalone="no"?>
<!DOCTYPE svg PUBLIC "-//W3C//DTD SVG 20010904//EN"
 "http://www.w3.org/TR/2001/REC-SVG-20010904/DTD/svg10.dtd">
<svg version="1.0" xmlns="http://www.w3.org/2000/svg"
 width="201.000000pt" height="201.000000pt" viewBox="0 0 201.000000 201.000000"
 preserveAspectRatio="xMidYMid meet">
<metadata>
Created by potrace 1.11, written by Peter Selinger 2001-2013
</metadata>
<g transform="translate(0.000000,201.000000) scale(0.100000,-0.100000)"
fill="#000000" stroke="none">
<path d="M0 1005 l0 -1005 1005 0 1005 0 0 1005 0 1005 -1005 0 -1005 0 0
-1005z m994 493 c10 -39 7 -105 -6 -115 -7 -6 -26 -13 -43 -17 -41 -10 -132
-53 -140 -65 -13 -22 -44 -10 -85 35 l-42 46 24 25 c50 54 179 112 249 113 30
0 38 -4 43 -22z m254 -13 c72 -33 149 -91 158 -117 5 -17 0 -28 -22 -46 -71
-58 -68 -58 -129 -17 -31 20 -83 46 -115 57 l-60 20 0 50 c0 27 5 59 11 70 10
18 17 20 57 14 25 -3 70 -17 100 -31z m-159 -180 c2 -3 -21 -5 -52 -5 -79 0
-157 -32 -212 -86 -25 -25 -45 -53 -45 -62 0 -13 4 -11 16 6 9 13 22 21 29 18
7 -2 19 1 26 7 11 10 11 9 0 -5 -7 -10 -19 -14 -28 -11 -12 5 -14 3 -8 -7 5
-8 4 -11 -2 -7 -6 4 -14 0 -17 -8 -3 -8 -11 -14 -18 -13 -18 4 -21 -29 -3 -36
9 -3 22 2 30 12 7 9 30 37 49 60 20 24 33 48 30 54 -4 6 -10 5 -15 -3 -5 -8
-9 -9 -9 -3 0 21 14 24 33 7 12 -11 17 -12 12 -4 -6 11 -3 13 13 9 12 -4 20
-2 16 3 -5 8 12 13 43 12 7 -1 10 3 7 8 -3 5 -17 7 -31 4 -16 -2 -23 -1 -17 5
15 15 64 20 64 7 0 -7 4 -6 10 3 8 12 10 12 11 -5 l0 -20 9 20 9 20 1 -20 1
-20 9 20 c5 11 9 14 9 7 1 -7 5 -11 10 -8 5 4 11 1 13 -6 5 -13 38 -20 38 -8
0 5 -6 10 -12 13 -7 2 1 2 17 -1 39 -6 45 -10 44 -30 0 -14 -2 -15 -7 -2 -8
17 -32 25 -32 10 0 -5 14 -17 31 -25 16 -9 38 -24 49 -35 15 -15 19 -16 24 -4
3 8 2 12 -4 9 -5 -3 -14 4 -20 15 -6 11 -15 18 -19 16 -4 -3 -8 1 -8 8 0 11 4
12 19 3 10 -7 18 -17 18 -24 0 -7 5 -12 12 -10 6 1 12 -7 13 -18 4 -58 4 -58
20 -45 9 7 18 10 22 6 3 -3 1 -6 -5 -6 -6 0 -9 -12 -8 -27 2 -16 5 -28 6 -28
1 0 3 -8 5 -19 5 -27 25 -45 25 -23 0 9 -4 17 -8 17 -5 0 -9 7 -9 15 0 23 14
18 21 -7 9 -35 6 -79 -10 -123 -7 -23 -11 -28 -9 -12 3 15 1 27 -5 27 -5 0 -9
-3 -8 -7 1 -5 -3 -18 -10 -30 -12 -21 -9 -27 11 -24 4 1 1 -12 -8 -29 -9 -16
-18 -30 -21 -30 -2 0 0 9 6 19 7 14 7 22 0 26 -6 4 -9 3 -8 -2 2 -4 -1 -8 -5
-8 -5 0 -13 -8 -18 -17 -14 -26 -92 -76 -108 -70 -8 2 -11 0 -7 -6 3 -5 -9
-13 -29 -16 -19 -4 -35 -12 -35 -17 0 -6 -7 -3 -16 5 -20 21 -30 20 -44 -1
-10 -16 -11 -16 -7 3 4 17 1 20 -14 17 -11 -3 -19 -1 -19 5 0 5 -7 13 -16 16
-10 4 -13 2 -9 -7 4 -6 -2 -2 -12 9 -29 34 -61 48 -79 33 -13 -10 -12 -15 7
-35 40 -43 105 -67 182 -68 26 -1 47 -5 47 -10 0 -16 -125 1 -168 23 -183 93
-233 312 -107 466 45 56 100 91 165 109 50 13 116 13 129 1z m124 -51 c116
-83 160 -219 112 -354 -8 -23 -24 -54 -34 -69 -11 -16 -17 -32 -13 -36 4 -5 1
-5 -5 -1 -7 4 -13 3 -13 -3 0 -6 -20 -22 -45 -37 -48 -28 -135 -58 -135 -46 0
4 26 15 58 24 247 73 257 450 13 543 -28 11 -51 23 -51 27 0 13 67 -16 113
-48z m-537 6 c24 -17 44 -34 44 -37 0 -3 -11 -36 -24 -72 -13 -37 -27 -92 -31
-124 -7 -55 -9 -57 -44 -68 -20 -6 -52 -9 -71 -7 l-35 3 1 80 c0 58 6 97 23
139 47 126 63 136 137 86z m817 -7 c43 -49 81 -226 63 -297 -7 -30 -29 -33
-100 -15 l-43 11 -7 61 c-3 34 -13 80 -21 103 -28 82 -25 94 30 125 60 34 58
34 78 12z m-223 -93 c0 -5 -4 -10 -10 -10 -5 0 -10 5 -10 10 0 6 5 10 10 10 6
0 10 -4 10 -10z m-588 -287 c9 -10 18 -27 22 -39 6 -21 21 -40 89 -111 l41
-43 -22 -44 c-42 -84 -63 -84 -151 2 -67 66 -132 185 -112 205 11 11 87 44
107 46 6 1 18 -7 26 -16z m796 -24 c27 -12 42 -25 42 -36 0 -19 -53 -113 -86
-152 -30 -36 -105 -91 -125 -91 -10 0 -30 21 -49 51 l-31 51 59 62 c33 34 69
81 81 104 24 47 24 47 109 11z m-253 -38 c3 -6 -5 -15 -17 -21 -21 -10 -21
-10 -6 3 10 8 15 17 11 20 -3 4 -4 7 0 7 3 0 8 -4 12 -9z m-320 -41 c3 -5 1
-10 -4 -10 -6 0 -11 5 -11 10 0 6 2 10 4 10 3 0 8 -4 11 -10z m275 5 c0 -2
-10 -10 -22 -16 -21 -11 -22 -11 -9 4 13 16 31 23 31 12z m-50 -24 c0 -5 -11
-11 -25 -13 -14 -3 -25 -2 -25 3 0 4 10 10 23 12 12 2 23 5 25 6 1 0 2 -3 2
-8z m-106 -9 c3 -5 -1 -9 -9 -9 -8 0 -12 4 -9 9 3 4 7 8 9 8 2 0 6 -4 9 -8z
m19 -104 c35 0 73 2 83 6 10 3 25 2 33 -3 20 -13 52 -113 40 -127 -26 -31
-173 -44 -269 -23 -63 14 -74 31 -55 93 20 66 22 68 65 61 21 -4 67 -7 103 -7z"/>
<path d="M746 1077 c-10 -38 -7 -137 5 -137 5 0 8 4 5 8 -3 5 2 9 10 9 9 0 11
-4 5 -10 -5 -5 -7 -17 -4 -26 4 -14 3 -14 -7 -1 -22 28 0 -32 27 -73 24 -38
25 -38 44 -21 18 16 19 20 5 30 -9 6 -13 14 -9 17 3 4 1 7 -5 7 -7 0 -12 7
-12 16 0 9 -6 14 -12 11 -7 -2 -12 -11 -10 -18 3 -12 1 -12 -10 -1 -11 11 -10
15 5 23 14 8 16 14 6 25 -6 8 -8 14 -5 14 4 0 3 8 -3 17 -6 11 -6 24 0 35 5
10 5 19 0 22 -11 7 -2 46 10 46 5 0 9 5 9 12 0 6 -3 8 -6 5 -4 -3 -15 -2 -24
3 -14 8 -19 5 -24 -13z m18 -32 c-4 -8 -8 -15 -10 -15 -2 0 -4 7 -4 15 0 8 4
15 10 15 5 0 7 -7 4 -15z m59 -198 c4 3 7 4 7 0 0 -18 -21 -14 -30 5 -10 21
-10 21 3 6 8 -10 17 -15 20 -11z"/>
<path d="M1291 974 c0 -11 3 -14 6 -6 3 7 2 16 -1 19 -3 4 -6 -2 -5 -13z"/>
</g>
</svg>
